<?xml version="1.0" encoding="UTF-8"?>
<svg width="104px" height="179px" viewBox="0 0 104 179" version="1.1" xmlns="http://www.w3.org/2000/svg" xmlns:xlink="http://www.w3.org/1999/xlink">
    <!-- Generator: Sketch 52.2 (67145) - http://www.bohemiancoding.com/sketch -->
    <title>Logo/dark</title>
    <desc>Created with Sketch.</desc>
    <defs>
        <filter x="-35.1%" y="-17.5%" width="170.1%" height="135.1%" filterUnits="objectBoundingBox" id="filter-1">
            <feOffset dx="0" dy="0" in="SourceAlpha" result="shadowOffsetOuter1"></feOffset>
            <feGaussianBlur stdDeviation="7" in="shadowOffsetOuter1" result="shadowBlurOuter1"></feGaussianBlur>
            <feColorMatrix values="0 0 0 0 0.223529412   0 0 0 0 0.294117647   0 0 0 0 0.254901961  0 0 0 1 0" type="matrix" in="shadowBlurOuter1" result="shadowMatrixOuter1"></feColorMatrix>
            <feMerge>
                <feMergeNode in="shadowMatrixOuter1"></feMergeNode>
                <feMergeNode in="SourceGraphic"></feMergeNode>
            </feMerge>
        </filter>
    </defs>
    <g id="DM---App-Icon" stroke="none" stroke-width="1" fill="none" fill-rule="evenodd">
        <g id="logo-dark" transform="translate(-57.000000, -514.000000)">
            <g id="Logo/dark" filter="url(#filter-1)" transform="translate(71.000000, 526.000000)">
                <path d="M64.849,94.9854051 C62.439,89.5514051 58.664,85.0384051 53.617,81.5644051 C42.082,73.6314051 34.031,81.4224051 26.484,90.5054051 C28.973,87.5094051 38.703,89.9184051 41.428,91.2274051 C47.257,94.0354051 51.513,97.7534051 53.005,104.409405 C54.542,111.241405 52.63,117.220405 47.328,122.176405 C44.889,124.460405 42.035,125.917405 38.842,126.518405 C33.701,127.482405 29.012,127.066405 24.311,124.746405 C23.286,124.218405 22.283,123.598405 21.391,122.845405 C20.501,122.086405 19.685,121.248405 18.976,120.352405 C18.242,119.482405 17.668,118.514405 17.117,117.594405 C16.066,115.714405 15.328,113.850405 14.852,112.215405 C14.361,110.589405 14.134,109.188405 13.979,108.215405 C13.837,107.236405 13.824,106.673405 13.824,106.673405 C13.824,106.673405 14.004,107.202405 14.315,108.131405 C14.617,109.056405 15.146,110.340405 15.811,111.851405 C17.15,114.836405 19.284,118.758405 22.523,121.445405 C22.892,121.767405 23.286,122.057405 23.688,122.330405 C18.547,117.343405 16.299,109.008405 17.364,101.178405 C17.366,101.147405 17.369,101.116405 17.374,101.086405 C18.557,92.5914051 24.425,84.7984051 31.592,79.5324051 C37.282,77.0774051 42.897,74.6554051 48.498,72.2384051 C48.318,71.5834051 48.141,70.9284051 47.966,70.2744051 C47.835,69.7784051 31.823,73.8154051 30.386,74.1844051 C28.002,74.7964051 24.607,76.7804051 22.374,74.8544051 C19.459,72.3394051 24.384,65.0974051 18.051,66.0934051 C19.336,65.8914051 13.738,77.5154051 13.262,78.2194051 C10.592,82.1614051 8.298,84.5114051 7.71,89.5094051 C5.978,85.6814051 5.302,81.5954051 2,78.6504051 C2.516,85.5354051 4.886,89.7464051 3.627,96.8134051 C2.236,104.617405 1.117,111.922405 3.888,119.628405 C5.551,124.256405 8.209,128.363405 11.784,131.838405 C12.66,132.684405 13.538,133.522405 14.417,134.366405 L21.689,141.365405 C25.409,144.956405 29.128,148.542405 32.856,152.123405 L33.083,152.347405 C33.616,152.865405 34.342,153.577405 35.555,153.577405 C36.855,153.577405 37.618,152.730405 37.944,152.364405 C38.013,152.285405 38.102,152.188405 38.185,152.106405 L48.473,141.565405 C49.562,140.445405 50.648,139.320405 51.732,138.195405 C53.783,136.071405 55.831,133.949405 57.91,131.862405 C61.438,128.313405 63.933,124.538405 65.529,120.326405 C68.76,111.817405 68.53,103.293405 64.849,94.9854051" id="Fill-1-Copy" fill="#FFFFFF"></path>
                <path d="M35.877662,63.248 C28.319662,47.314 36.445662,28.835 50.976662,19 C55.826662,27.344 58.874662,36.034 56.502662,45.783 C54.324662,54.735 48.071662,60.147 40.366662,64.072 C40.103662,63.953 39.842662,63.835 39.580662,63.715 C41.123662,56.837 42.667662,49.959 44.214662,43.078 C40.574662,49.196 37.004662,55.409 35.877662,63.248" id="Fill-3-Copy" fill="#A8E288"></path>
                <path d="M76.402,52.6427842 C75.717,65.2117842 60.962,74.0017842 49.777,68.0547842 C53.562,65.6827842 57.112,63.4577842 60.663,61.2347842 C60.598,61.0467842 60.535,60.8587842 60.471,60.6717842 C56.599,62.1157842 52.728,63.5597842 49,64.9517842 C49.366,57.0277842 64.918,49.7647842 76.402,52.6427842" id="Fill-5-Copy" fill="#679C48"></path>
                <path d="M15.6719612,65.086 C-3.31503879,49.72 -4.12203879,21.528 8.26396121,0.261 C19.3309612,7.762 28.3329612,16.803 31.1619612,30.501 C33.7589612,43.078 29.1359612,53.712 21.7999612,63.368 C21.3989612,63.378 20.9989612,63.39 20.5999612,63.4 C18.4409612,53.818 16.2819612,44.234 14.1169612,34.643 C13.1949612,44.562 12.4179612,54.553 15.6719612,65.086" id="Fill-7-Copy" fill="#1EEB74"></path>
            </g>
        </g>
    </g>
</svg>