<?xml version="1.0" encoding="UTF-8"?>
<svg width="821px" height="363px" viewBox="0 0 821 363" version="1.1" xmlns="http://www.w3.org/2000/svg" xmlns:xlink="http://www.w3.org/1999/xlink">
    <!-- Generator: Sketch 52.2 (67145) - http://www.bohemiancoding.com/sketch -->
    <title>Logo name/dark</title>
    <desc>Created with Sketch.</desc>
    <g id="DM---App-Icon" stroke="none" stroke-width="1" fill="none" fill-rule="evenodd">
        <g id="logo-dark" transform="translate(0.000000, -135.000000)">
            <rect fill="#394B41" x="0" y="0" width="1081" height="784"></rect>
            <g id="Logo-name/dark" transform="translate(60.000000, 235.000000)">
                <g>
                    <path d="M406.849,94.9854051 C404.439,89.5514051 400.664,85.0384051 395.617,81.5644051 C384.082,73.6314051 376.031,81.4224051 368.484,90.5054051 C370.973,87.5094051 380.703,89.9184051 383.428,91.2274051 C389.257,94.0354051 393.513,97.7534051 395.005,104.409405 C396.542,111.241405 394.63,117.220405 389.328,122.176405 C386.889,124.460405 384.035,125.917405 380.842,126.518405 C375.701,127.482405 371.012,127.066405 366.311,124.746405 C365.286,124.218405 364.283,123.598405 363.391,122.845405 C362.501,122.086405 361.685,121.248405 360.976,120.352405 C360.242,119.482405 359.668,118.514405 359.117,117.594405 C358.066,115.714405 357.328,113.850405 356.852,112.215405 C356.361,110.589405 356.134,109.188405 355.979,108.215405 C355.837,107.236405 355.824,106.673405 355.824,106.673405 C355.824,106.673405 356.004,107.202405 356.315,108.131405 C356.617,109.056405 357.146,110.340405 357.811,111.851405 C359.15,114.836405 361.284,118.758405 364.523,121.445405 C364.892,121.767405 365.286,122.057405 365.688,122.330405 C360.547,117.343405 358.299,109.008405 359.364,101.178405 C359.366,101.147405 359.369,101.116405 359.374,101.086405 C360.557,92.5914051 366.425,84.7984051 373.592,79.5324051 C379.282,77.0774051 384.897,74.6554051 390.498,72.2384051 C390.318,71.5834051 390.141,70.9284051 389.966,70.2744051 C389.835,69.7784051 373.823,73.8154051 372.386,74.1844051 C370.002,74.7964051 366.607,76.7804051 364.374,74.8544051 C361.459,72.3394051 366.384,65.0974051 360.051,66.0934051 C361.336,65.8914051 355.738,77.5154051 355.262,78.2194051 C352.592,82.1614051 350.298,84.5114051 349.71,89.5094051 C347.978,85.6814051 347.302,81.5954051 344,78.6504051 C344.516,85.5354051 346.886,89.7464051 345.627,96.8134051 C344.236,104.617405 343.117,111.922405 345.888,119.628405 C347.551,124.256405 350.209,128.363405 353.784,131.838405 C354.66,132.684405 355.538,133.522405 356.417,134.366405 L363.689,141.365405 C367.409,144.956405 371.128,148.542405 374.856,152.123405 L375.083,152.347405 C375.616,152.865405 376.342,153.577405 377.555,153.577405 C378.855,153.577405 379.618,152.730405 379.944,152.364405 C380.013,152.285405 380.102,152.188405 380.185,152.106405 L390.473,141.565405 C391.562,140.445405 392.648,139.320405 393.732,138.195405 C395.783,136.071405 397.831,133.949405 399.91,131.862405 C403.438,128.313405 405.933,124.538405 407.529,120.326405 C410.76,111.817405 410.53,103.293405 406.849,94.9854051" id="Fill-1" fill="#FFFFFF"></path>
                    <path d="M376.877662,63.248 C369.319662,47.314 377.445662,28.835 391.976662,19 C396.826662,27.344 399.874662,36.034 397.502662,45.783 C395.324662,54.735 389.071662,60.147 381.366662,64.072 C381.103662,63.953 380.842662,63.835 380.580662,63.715 C382.123662,56.837 383.667662,49.959 385.214662,43.078 C381.574662,49.196 378.004662,55.409 376.877662,63.248" id="Fill-3" fill="#A8E288"></path>
                    <path d="M418.402,52.6427842 C417.717,65.2117842 402.962,74.0017842 391.777,68.0547842 C395.562,65.6827842 399.112,63.4577842 402.663,61.2347842 C402.598,61.0467842 402.535,60.8587842 402.471,60.6717842 C398.599,62.1157842 394.728,63.5597842 391,64.9517842 C391.366,57.0277842 406.918,49.7647842 418.402,52.6427842" id="Fill-5" fill="#679C48"></path>
                    <path d="M356.671961,65.086 C337.684961,49.72 336.877961,21.528 349.263961,0.261 C360.330961,7.762 369.332961,16.803 372.161961,30.501 C374.758961,43.078 370.135961,53.712 362.799961,63.368 C362.398961,63.378 361.998961,63.39 361.599961,63.4 C359.440961,53.818 357.281961,44.234 355.116961,34.643 C354.194961,44.562 353.417961,54.553 356.671961,65.086" id="Fill-7" fill="#1EEB74"></path>
                    <path d="M458.417,137.9534 L458.417,106.8024 C458.417,99.1334 454.405,92.1714 446.499,92.1714 C438.711,92.1714 434.109,99.1334 434.109,106.8024 L434.109,137.9534 L419.714,137.9534 L419.714,79.6634 L433.048,79.6634 L434.109,86.7434 C437.178,80.8434 443.903,78.7194 449.449,78.7194 C456.411,78.7194 463.373,81.5514 466.677,89.5754 C471.868,81.3154 478.594,78.9554 486.146,78.9554 C502.665,78.9554 510.807,89.1024 510.807,106.5664 L510.807,137.9534 L496.411,137.9534 L496.411,106.5664 C496.411,98.8964 493.226,92.4064 485.438,92.4064 C477.65,92.4064 472.813,99.1334 472.813,106.8024 L472.813,137.9534 L458.417,137.9534 Z" id="Fill-10" fill="#A8E288"></path>
                    <path d="M536.6514,108.8079 C536.6514,119.8999 544.3214,126.5079 553.8794,126.5079 C576.5344,126.5079 576.5344,91.2269 553.8794,91.2269 C544.3214,91.2269 536.6514,97.7169 536.6514,108.8079 Z M571.5784,79.7809 L585.3834,79.7809 L585.3834,137.9539 L571.8144,137.9539 L571.1064,129.4569 C567.8014,136.3009 558.7164,139.6059 552.2264,139.7229 C534.9994,139.8409 522.2554,129.2219 522.2554,108.8079 C522.2554,88.7489 535.5894,78.2469 552.5814,78.3659 C560.3684,78.3659 567.8014,82.0229 571.1064,87.8049 L571.5784,79.7809 Z" id="Fill-12" fill="#A8E288"></path>
                    <path d="M646.2705,108.9261 C646.2705,99.8411 640.1345,92.4061 629.7505,92.4061 C619.3675,92.4061 613.2315,99.8411 613.2315,108.9261 C613.2315,118.0121 619.9575,125.4461 629.7505,125.4461 C639.5445,125.4461 646.2705,118.0121 646.2705,108.9261 Z M597.5385,162.2611 L597.5385,79.7811 L610.9905,79.7811 L611.9335,87.8051 C616.4175,81.3151 624.2055,78.4831 630.8135,78.4831 C648.7495,78.4831 660.6665,91.8171 660.6665,108.9261 C660.6665,125.9181 649.9285,139.3691 631.2855,139.3691 C625.1495,139.3691 616.0635,137.4821 611.9335,131.1101 L611.9335,162.2611 L597.5385,162.2611 Z" id="Fill-14" fill="#A8E288"></path>
                    <path d="M15.3955,109.511 C15.3955,119.657 22.7115,126.62 31.9155,126.62 C41.0005,126.62 48.7885,120.012 48.7885,109.511 C48.7885,99.363 41.0005,92.519 31.9155,92.519 C22.7115,92.519 15.3955,99.009 15.3955,109.511 Z M64.1275,56.176 L64.1275,138.656 L50.6765,138.656 L49.7325,130.632 C45.2485,137.594 38.0505,139.953 30.9715,139.953 C13.8615,139.953 0.9995,128.626 0.9995,109.511 C0.9995,89.451 13.6255,79.068 30.6175,79.068 C36.7525,79.068 46.3105,82.371 49.7325,88.389 L49.7325,56.176 L64.1275,56.176 Z" id="Fill-17" fill="#FFFFFF"></path>
                    <path d="M121.8281,102.7845 C120.8841,95.2325 114.9841,91.4575 106.7241,91.4575 C98.9371,91.4575 92.5651,95.2325 90.4411,102.7845 L121.8281,102.7845 Z M90.2051,114.7025 C91.1491,121.8995 97.4031,127.0925 107.5511,127.0925 C112.8601,127.0925 119.8221,125.0865 123.1261,121.6645 L132.3301,130.7505 C126.1941,137.1215 116.1641,140.1895 107.3151,140.1895 C87.2551,140.1895 75.3381,127.8005 75.3381,109.1565 C75.3381,91.4575 87.3731,78.7135 106.2531,78.7135 C125.7221,78.7135 137.8761,90.7495 135.6341,114.7025 L90.2051,114.7025 Z" id="Fill-20" fill="#FFFFFF"></path>
                    <path d="M189.5596,138.6556 L189.5596,108.2126 C189.5596,99.3626 184.7226,92.6366 175.5176,92.6366 C166.6686,92.6366 160.6506,100.0706 160.6506,108.9216 L160.6506,138.6556 L146.3726,138.6556 L146.3726,80.3656 L159.2346,80.3656 L160.1786,88.2716 C166.0786,82.4896 171.9786,79.5396 179.2936,79.5396 C192.9816,79.5396 203.9556,89.8046 203.9556,108.0946 L203.9556,138.6556 L189.5596,138.6556 Z" id="Fill-22" fill="#FFFFFF"></path>
                    <path d="M228.0283,109.511 C228.0283,119.657 235.3443,126.62 244.5483,126.62 C253.6333,126.62 261.4213,120.012 261.4213,109.511 C261.4213,99.363 253.6333,92.519 244.5483,92.519 C235.3443,92.519 228.0283,99.009 228.0283,109.511 Z M276.7603,56.176 L276.7603,138.656 L263.3093,138.656 L262.3653,130.632 C257.8813,137.594 250.6833,139.953 243.6043,139.953 C226.4943,139.953 213.6323,128.626 213.6323,109.511 C213.6323,89.451 226.2583,79.068 243.2503,79.068 C249.3853,79.068 258.9433,82.371 262.3653,88.389 L262.3653,56.176 L276.7603,56.176 Z" id="Fill-24" fill="#FFFFFF"></path>
                    <path d="M302.6035,80.4832 L303.6655,87.2092 C308.1495,80.0112 314.1665,78.9492 320.0675,78.9492 C326.0845,78.9492 331.8675,81.3092 335.0525,84.4952 L328.5625,97.0032 C325.6135,94.5252 322.8995,93.2272 318.1795,93.2272 C310.6275,93.2272 303.6655,97.2392 303.6655,107.9762 L303.6655,138.6552 L289.2705,138.6552 L289.2705,80.4832 L302.6035,80.4832 Z" id="Fill-26" fill="#FFFFFF"></path>
                </g>
            </g>
        </g>
    </g>
</svg>