<?xml version="1.0" encoding="UTF-8"?>
<svg width="23px" height="24px" viewBox="0 0 23 24" version="1.1" xmlns="http://www.w3.org/2000/svg" xmlns:xlink="http://www.w3.org/1999/xlink">
    <!-- Generator: Sketch 52.2 (67145) - http://www.bohemiancoding.com/sketch -->
    <title>Marker/Tree</title>
    <desc>Created with Sketch.</desc>
    <g id="Symbols" stroke="none" stroke-width="1" fill="none" fill-rule="evenodd">
        <g id="Marker/Tree-draft" transform="translate(-5.000000, -4.000000)" fill="#FFFFFF">
            <g id="Group">
                <path d="M19.405658,6.68503447 C22.4864638,5.51980505 25.4838231,8.93305396 23.901697,11.7637601 C28.5643891,12.5130999 28.0641898,19.4238116 23.3190823,19.4238116 L17.2409172,19.4238116 L17.2409172,26.9172098 L20.9876163,26.9172098 C21.7369561,26.9172098 21.7369561,28 20.9876163,28 L11.162752,28 C10.4134122,28 10.4134122,26.9172098 11.162752,26.9172098 L14.9094512,26.9172098 L14.9094512,19.4238116 L11.9120919,19.4238116 L8.83128608,19.4238116 C4.08514767,19.4238116 3.58590728,12.5130999 8.24867136,11.7637601 C6.66661716,8.93305396 9.66397647,5.51894181 12.6612639,6.68503447 C13.661039,3.10498851 18.489665,3.10498851 19.405658,6.68503447 Z" id="Marker/Tree"></path>
            </g>
        </g>
    </g>
</svg>