<?xml version="1.0" encoding="UTF-8"?>
<svg width="660px" height="163px" viewBox="0 0 660 163" version="1.1" xmlns="http://www.w3.org/2000/svg" xmlns:xlink="http://www.w3.org/1999/xlink">
    <!-- Generator: Sketch 52.2 (67145) - http://www.bohemiancoding.com/sketch -->
    <title>Logo name/white</title>
    <desc>Created with Sketch.</desc>
    <defs>
        <polygon id="path-1" points="0.5385 0.2221 63.666 0.2221 63.666 84 0.5385 84"></polygon>
        <polygon id="path-3" points="0 0.915 63.1275 0.915 63.1275 84.692 0 84.692"></polygon>
    </defs>
    <g id="DM---App-Icon" stroke="none" stroke-width="1" fill="none" fill-rule="evenodd">
        <g id="logo-white" transform="translate(-61.000000, -235.000000)">
            <g id="Logo-name/white" transform="translate(61.000000, 235.000000)">
                <g id="Group-28">
                    <path d="M405.849,94.9854051 C403.439,89.5514051 399.664,85.0384051 394.617,81.5644051 C383.082,73.6314051 375.031,81.4224051 367.484,90.5054051 C369.973,87.5094051 379.703,89.9184051 382.428,91.2274051 C388.257,94.0354051 392.513,97.7534051 394.005,104.409405 C395.542,111.241405 393.63,117.220405 388.328,122.176405 C385.889,124.460405 383.035,125.917405 379.842,126.518405 C374.701,127.482405 370.012,127.066405 365.311,124.746405 C364.286,124.218405 363.283,123.598405 362.391,122.845405 C361.501,122.086405 360.685,121.248405 359.976,120.352405 C359.242,119.482405 358.668,118.514405 358.117,117.594405 C357.066,115.714405 356.328,113.850405 355.852,112.215405 C355.361,110.589405 355.134,109.188405 354.979,108.215405 C354.837,107.236405 354.824,106.673405 354.824,106.673405 C354.824,106.673405 355.004,107.202405 355.315,108.131405 C355.617,109.056405 356.146,110.340405 356.811,111.851405 C358.15,114.836405 360.284,118.758405 363.523,121.445405 C363.892,121.767405 364.286,122.057405 364.688,122.330405 C359.547,117.343405 357.299,109.008405 358.364,101.178405 C358.366,101.147405 358.369,101.116405 358.374,101.086405 C359.557,92.5914051 365.425,84.7984051 372.592,79.5324051 C378.282,77.0774051 383.897,74.6554051 389.498,72.2384051 C389.318,71.5834051 389.141,70.9284051 388.966,70.2744051 C388.835,69.7784051 372.823,73.8154051 371.386,74.1844051 C369.002,74.7964051 365.607,76.7804051 363.374,74.8544051 C360.459,72.3394051 365.384,65.0974051 359.051,66.0934051 C360.336,65.8914051 354.738,77.5154051 354.262,78.2194051 C351.592,82.1614051 349.298,84.5114051 348.71,89.5094051 C346.978,85.6814051 346.302,81.5954051 343,78.6504051 C343.516,85.5354051 345.886,89.7464051 344.627,96.8134051 C343.236,104.617405 342.117,111.922405 344.888,119.628405 C346.551,124.256405 349.209,128.363405 352.784,131.838405 C353.66,132.684405 354.538,133.522405 355.417,134.366405 L362.689,141.365405 C366.409,144.956405 370.128,148.542405 373.856,152.123405 L374.083,152.347405 C374.616,152.865405 375.342,153.577405 376.555,153.577405 C377.855,153.577405 378.618,152.730405 378.944,152.364405 C379.013,152.285405 379.102,152.188405 379.185,152.106405 L389.473,141.565405 C390.562,140.445405 391.648,139.320405 392.732,138.195405 C394.783,136.071405 396.831,133.949405 398.91,131.862405 C402.438,128.313405 404.933,124.538405 406.529,120.326405 C409.76,111.817405 409.53,103.293405 405.849,94.9854051" id="Fill-1" fill="#005532"></path>
                    <path d="M375.877662,63.248 C368.319662,47.314 376.445662,28.835 390.976662,19 C395.826662,27.344 398.874662,36.034 396.502662,45.783 C394.324662,54.735 388.071662,60.147 380.366662,64.072 C380.103662,63.953 379.842662,63.835 379.580662,63.715 C381.123662,56.837 382.667662,49.959 384.214662,43.078 C380.574662,49.196 377.004662,55.409 375.877662,63.248" id="Fill-3" fill="#A8E288"></path>
                    <path d="M417.402,52.6427842 C416.717,65.2117842 401.962,74.0017842 390.777,68.0547842 C394.562,65.6827842 398.112,63.4577842 401.663,61.2347842 C401.598,61.0467842 401.535,60.8587842 401.471,60.6717842 C397.599,62.1157842 393.728,63.5597842 390,64.9517842 C390.366,57.0277842 405.918,49.7647842 417.402,52.6427842" id="Fill-5" fill="#679C48"></path>
                    <g id="Group-9" transform="translate(340.000000, 0.261000)" fill="#1EEB74">
                        <path d="M15.6719612,64.825 C-3.31503879,49.459 -4.12203879,21.267 8.26396121,0 C19.3309612,7.501 28.3329612,16.542 31.1619612,30.24 C33.7589612,42.817 29.1359612,53.451 21.7999612,63.107 C21.3989612,63.117 20.9989612,63.129 20.5999612,63.139 C18.4409612,53.557 16.2819612,43.973 14.1169612,34.382 C13.1949612,44.301 12.4179612,54.292 15.6719612,64.825" id="Fill-7"></path>
                    </g>
                    <path d="M457.417,137.9534 L457.417,106.8024 C457.417,99.1334 453.405,92.1714 445.499,92.1714 C437.711,92.1714 433.109,99.1334 433.109,106.8024 L433.109,137.9534 L418.714,137.9534 L418.714,79.6634 L432.048,79.6634 L433.109,86.7434 C436.178,80.8434 442.903,78.7194 448.449,78.7194 C455.411,78.7194 462.373,81.5514 465.677,89.5754 C470.868,81.3154 477.594,78.9554 485.146,78.9554 C501.665,78.9554 509.807,89.1024 509.807,106.5664 L509.807,137.9534 L495.411,137.9534 L495.411,106.5664 C495.411,98.8964 492.226,92.4064 484.438,92.4064 C476.65,92.4064 471.813,99.1334 471.813,106.8024 L471.813,137.9534 L457.417,137.9534 Z" id="Fill-10" fill="#A8E288"></path>
                    <path d="M535.6514,108.8079 C535.6514,119.8999 543.3214,126.5079 552.8794,126.5079 C575.5344,126.5079 575.5344,91.2269 552.8794,91.2269 C543.3214,91.2269 535.6514,97.7169 535.6514,108.8079 Z M570.5784,79.7809 L584.3834,79.7809 L584.3834,137.9539 L570.8144,137.9539 L570.1064,129.4569 C566.8014,136.3009 557.7164,139.6059 551.2264,139.7229 C533.9994,139.8409 521.2554,129.2219 521.2554,108.8079 C521.2554,88.7489 534.5894,78.2469 551.5814,78.3659 C559.3684,78.3659 566.8014,82.0229 570.1064,87.8049 L570.5784,79.7809 Z" id="Fill-12" fill="#A8E288"></path>
                    <g id="Group-16" transform="translate(596.000000, 78.261000)">
                        <mask id="mask-2" fill="white">
                            <use xlink:href="#path-1"></use>
                        </mask>
                        <g id="Clip-15"></g>
                        <path d="M49.2705,30.6651 C49.2705,21.5801 43.1345,14.1451 32.7505,14.1451 C22.3675,14.1451 16.2315,21.5801 16.2315,30.6651 C16.2315,39.7511 22.9575,47.1851 32.7505,47.1851 C42.5445,47.1851 49.2705,39.7511 49.2705,30.6651 Z M0.5385,84.0001 L0.5385,1.5201 L13.9905,1.5201 L14.9335,9.5441 C19.4175,3.0541 27.2055,0.2221 33.8135,0.2221 C51.7495,0.2221 63.6665,13.5561 63.6665,30.6651 C63.6665,47.6571 52.9285,61.1081 34.2855,61.1081 C28.1495,61.1081 19.0635,59.2211 14.9335,52.8491 L14.9335,84.0001 L0.5385,84.0001 Z" id="Fill-14" fill="#A8E288" mask="url(#mask-2)"></path>
                    </g>
                    <g id="Group-19" transform="translate(0.000000, 55.261000)">
                        <mask id="mask-4" fill="white">
                            <use xlink:href="#path-3"></use>
                        </mask>
                        <g id="Clip-18"></g>
                        <path d="M14.3955,54.25 C14.3955,64.396 21.7115,71.359 30.9155,71.359 C40.0005,71.359 47.7885,64.751 47.7885,54.25 C47.7885,44.102 40.0005,37.258 30.9155,37.258 C21.7115,37.258 14.3955,43.748 14.3955,54.25 Z M63.1275,0.915 L63.1275,83.395 L49.6765,83.395 L48.7325,75.371 C44.2485,82.333 37.0505,84.692 29.9715,84.692 C12.8615,84.692 -0.0005,73.365 -0.0005,54.25 C-0.0005,34.19 12.6255,23.807 29.6175,23.807 C35.7525,23.807 45.3105,27.11 48.7325,33.128 L48.7325,0.915 L63.1275,0.915 Z" id="Fill-17" fill="#005532" mask="url(#mask-4)"></path>
                    </g>
                    <path d="M120.8281,102.7845 C119.8841,95.2325 113.9841,91.4575 105.7241,91.4575 C97.9371,91.4575 91.5651,95.2325 89.4411,102.7845 L120.8281,102.7845 Z M89.2051,114.7025 C90.1491,121.8995 96.4031,127.0925 106.5511,127.0925 C111.8601,127.0925 118.8221,125.0865 122.1261,121.6645 L131.3301,130.7505 C125.1941,137.1215 115.1641,140.1895 106.3151,140.1895 C86.2551,140.1895 74.3381,127.8005 74.3381,109.1565 C74.3381,91.4575 86.3731,78.7135 105.2531,78.7135 C124.7221,78.7135 136.8761,90.7495 134.6341,114.7025 L89.2051,114.7025 Z" id="Fill-20" fill="#005532"></path>
                    <path d="M188.5596,138.6556 L188.5596,108.2126 C188.5596,99.3626 183.7226,92.6366 174.5176,92.6366 C165.6686,92.6366 159.6506,100.0706 159.6506,108.9216 L159.6506,138.6556 L145.3726,138.6556 L145.3726,80.3656 L158.2346,80.3656 L159.1786,88.2716 C165.0786,82.4896 170.9786,79.5396 178.2936,79.5396 C191.9816,79.5396 202.9556,89.8046 202.9556,108.0946 L202.9556,138.6556 L188.5596,138.6556 Z" id="Fill-22" fill="#005532"></path>
                    <path d="M227.0283,109.511 C227.0283,119.657 234.3443,126.62 243.5483,126.62 C252.6333,126.62 260.4213,120.012 260.4213,109.511 C260.4213,99.363 252.6333,92.519 243.5483,92.519 C234.3443,92.519 227.0283,99.009 227.0283,109.511 Z M275.7603,56.176 L275.7603,138.656 L262.3093,138.656 L261.3653,130.632 C256.8813,137.594 249.6833,139.953 242.6043,139.953 C225.4943,139.953 212.6323,128.626 212.6323,109.511 C212.6323,89.451 225.2583,79.068 242.2503,79.068 C248.3853,79.068 257.9433,82.371 261.3653,88.389 L261.3653,56.176 L275.7603,56.176 Z" id="Fill-24" fill="#005532"></path>
                    <path d="M301.6035,80.4832 L302.6655,87.2092 C307.1495,80.0112 313.1665,78.9492 319.0675,78.9492 C325.0845,78.9492 330.8675,81.3092 334.0525,84.4952 L327.5625,97.0032 C324.6135,94.5252 321.8995,93.2272 317.1795,93.2272 C309.6275,93.2272 302.6655,97.2392 302.6655,107.9762 L302.6655,138.6552 L288.2705,138.6552 L288.2705,80.4832 L301.6035,80.4832 Z" id="Fill-26" fill="#005532"></path>
                </g>
            </g>
        </g>
    </g>
</svg>